<?xml version="1.0" encoding="UTF-8" standalone="no" ?>
<!DOCTYPE svg PUBLIC "-//W3C//DTD SVG 1.1//EN" "http://www.w3.org/Graphics/SVG/1.1/DTD/svg11.dtd">
<svg xmlns="http://www.w3.org/2000/svg" xmlns:xlink="http://www.w3.org/1999/xlink" version="1.1" width="1280" height="1024" viewBox="0 0 1280 1024" xml:space="preserve">
<desc>Created with Fabric.js 3.6.3</desc>
<defs>
</defs>
<g transform="matrix(1.9692780337941629 0 0 1.9692780337941629 640.0153846153846 512.012312418764)" id="background-logo"  >
<rect style="stroke: none; stroke-width: 1; stroke-dasharray: none; stroke-linecap: butt; stroke-dashoffset: 0; stroke-linejoin: miter; stroke-miterlimit: 4; fill: rgb(255,255,255); fill-rule: nonzero; opacity: 1;"  paint-order="stroke"  x="-325" y="-260" rx="0" ry="0" width="650" height="520" />
</g>
<g transform="matrix(1.9692780337941629 0 0 1.9692780337941629 640.01523856807 422.436145001541)" id="logo-logo"  >
<g style=""  paint-order="stroke"   >
		<g transform="matrix(2.967 0 0 -2.967 0.06307416287194201 -0.07219423665193858)"  >
<path style="stroke: none; stroke-width: 1; stroke-dasharray: none; stroke-linecap: butt; stroke-dashoffset: 0; stroke-linejoin: miter; stroke-miterlimit: 4; fill: rgb(76,63,58); fill-rule: nonzero; opacity: 1;"  paint-order="stroke"  transform=" translate(-13.71147686603176, 3.2003142174122488)" d="M 0 0 C 1.767 7.573 9.339 12.279 16.913 10.511 C 24.484 8.745 29.191 1.173 27.423 -6.399 C 25.656 -13.973 18.084 -18.679 10.512 -16.912 C 2.938 -15.145 -1.768 -7.573 0 0" stroke-linecap="round" />
</g>
		<g transform="matrix(2.967 0 0 -2.967 -81.27592583712806 83.71380576334809)"  >
<path style="stroke: none; stroke-width: 1; stroke-dasharray: none; stroke-linecap: butt; stroke-dashoffset: 0; stroke-linejoin: miter; stroke-miterlimit: 4; fill: rgb(52,109,191); fill-rule: nonzero; opacity: 1;"  paint-order="stroke"  transform=" translate(-9.487578943640639, -13.026476019804694)" d="m 0 0 c -1.262 -1.201 -3.26 -1.152 -4.463 0.11 c -1.201 1.264 -1.152 3.262 0.111 4.464 c 1.264 1.2 3.262 1.151 4.463 -0.111 C 1.312 3.199 1.263 1.2 0 0 m 27.809 26.502 c -1.731 1.068 -3.216 2.403 -4.429 3.923 L 0.196 8.553 C -2.96 9.745 -6.572 8.385 -8.122 5.304 C -9.777 2.008 -8.448 -2.005 -5.153 -3.66 C -1.859 -5.315 2.153 -3.987 3.809 -0.692 C 4.611 0.905 4.71 2.67 4.227 4.255 Z" stroke-linecap="round" />
</g>
		<g transform="matrix(2.967 0 0 -2.967 -83.64192583712804 -81.20219423665193)"  >
<path style="stroke: none; stroke-width: 1; stroke-dasharray: none; stroke-linecap: butt; stroke-dashoffset: 0; stroke-linejoin: miter; stroke-miterlimit: 4; fill: rgb(52,109,191); fill-rule: nonzero; opacity: 1;"  paint-order="stroke"  transform=" translate(-8.494786048068407, 13.829153494290775)" d="m 0 0 c 1.202 -1.263 1.152 -3.261 -0.111 -4.462 c -1.262 -1.203 -3.26 -1.153 -4.463 0.11 c -1.201 1.263 -1.151 3.261 0.112 4.462 C -3.2 1.313 -1.202 1.263 0 0 m -8.219 0.787 c -1.654 -3.294 -0.326 -7.307 2.968 -8.962 c 1.623 -0.816 3.42 -0.906 5.024 -0.395 l 22.224 -23.555 c 1.068 1.731 2.403 3.216 3.923 4.428 L 4.021 -4.485 C 5.163 -1.348 3.801 2.218 0.744 3.754 C -2.55 5.41 -6.563 4.082 -8.219 0.787" stroke-linecap="round" />
</g>
		<g transform="matrix(2.967 0 0 -2.967 81.35207416287193 -83.64119423665193)"  >
<path style="stroke: none; stroke-width: 1; stroke-dasharray: none; stroke-linecap: butt; stroke-dashoffset: 0; stroke-linejoin: miter; stroke-miterlimit: 4; fill: rgb(52,109,191); fill-rule: nonzero; opacity: 1;"  paint-order="stroke"  transform=" translate(14.099244034892351, 13.108963580807838)" d="m 0 0 c 1.202 -1.263 1.152 -3.262 -0.111 -4.463 c -1.262 -1.202 -3.261 -1.153 -4.462 0.11 c -1.203 1.263 -1.154 3.261 0.109 4.463 C -3.201 1.312 -1.203 1.262 0 0 m -8.84 -4.388 l -23.555 -22.223 c 1.731 -1.068 3.215 -2.403 4.426 -3.923 l 23.212 21.898 c 3.14 -1.142 6.704 0.221 8.241 3.278 C 5.14 -2.064 3.811 1.949 0.517 3.604 C -2.777 5.259 -6.789 3.931 -8.444 0.637 C -9.261 -0.986 -9.351 -2.784 -8.84 -4.388" stroke-linecap="round" />
</g>
		<g transform="matrix(2.967 0 0 -2.967 83.85407416287194 81.27580576334805)"  >
<path style="stroke: none; stroke-width: 1; stroke-dasharray: none; stroke-linecap: butt; stroke-dashoffset: 0; stroke-linejoin: miter; stroke-miterlimit: 4; fill: rgb(52,109,191); fill-rule: nonzero; opacity: 1;"  paint-order="stroke"  transform=" translate(13.053921485160622, -9.41496358080784)" d="m 0 0 c 1.201 -1.264 1.151 -3.263 -0.11 -4.463 c -1.264 -1.202 -3.262 -1.153 -4.463 0.11 c -1.202 1.264 -1.153 3.261 0.11 4.462 C -3.199 1.312 -1.201 1.264 0 0 M -30.5 23.257 L -8.584 0.027 c -1.098 -3.122 0.268 -6.644 3.302 -8.171 c 3.295 -1.655 7.306 -0.327 8.961 2.967 c 1.657 3.294 0.328 7.309 -2.966 8.964 c -1.649 0.826 -3.474 0.909 -5.095 0.371 l -22.195 23.528 c -1.068 -1.732 -2.402 -3.217 -3.923 -4.429" stroke-linecap="round" />
</g>
		<g transform="matrix(2.967 0 0 -2.967 84.05607416287194 0.04580576334808484)"  >
<path style="stroke: none; stroke-width: 1; stroke-dasharray: none; stroke-linecap: butt; stroke-dashoffset: 0; stroke-linejoin: miter; stroke-miterlimit: 4; fill: rgb(76,63,58); fill-rule: nonzero; opacity: 1;"  paint-order="stroke"  transform=" translate(2.3179999999999996, -2.1005000000000003)" d="m 0 0 c 1.716 -1.802 1.646 -4.652 -0.157 -6.367 c -1.801 -1.715 -4.653 -1.644 -6.368 0.158 c -1.714 1.801 -1.644 4.652 0.159 6.367 C -4.564 1.873 -1.714 1.802 0 0 m -14.475 -4.116 l 20.968 -22.225 l 4.276 4.056 l -9.081 9.624 l -0.02 -0.02 l -0.851 0.897 l 4.405 4.193 l 0.002 -0.002 l 4.201 3.957 L 1.048 5.256 L 9.819 13.532 L 5.667 17.935 L -7.308 5.694 L -9.276 7.779 L 10.186 26.14 L 6.033 30.542 L -15.405 10.316 c 2.338 -4.33 2.797 -9.593 0.93 -14.432" stroke-linecap="round" />
</g>
		<g transform="matrix(2.967 0 0 -2.967 0.10107416287195292 84.05680576334811)"  >
<path style="stroke: none; stroke-width: 1; stroke-dasharray: none; stroke-linecap: butt; stroke-dashoffset: 0; stroke-linejoin: miter; stroke-miterlimit: 4; fill: rgb(76,63,58); fill-rule: nonzero; opacity: 1;"  paint-order="stroke"  transform=" translate(-2.006999999999998, -2.3444999999999983)" d="M 0 0 C -1.801 -1.715 -4.652 -1.644 -6.367 0.158 C -8.082 1.959 -8.01 4.81 -6.208 6.525 C -4.407 8.24 -1.556 8.169 0.159 6.367 C 1.873 4.565 1.804 1.715 0 0 m -4.208 14.502 l -22.227 -20.969 l 4.058 -4.275 l 10.585 9.989 l 8.269 -8.69 l 0.421 0.401 l 8.371 7.941 l 1 -1.052 l -0.02 -0.017 l 7.192 -7.622 l 4.402 4.152 l -12.241 12.975 l 2.084 1.967 l 18.363 -19.46 l 4.4 4.153 l -20.224 21.436 C 5.894 13.095 0.63 12.636 -4.208 14.502" stroke-linecap="round" />
</g>
		<g transform="matrix(2.967 0 0 -2.967 -83.90392583712804 0.10580576334805869)"  >
<path style="stroke: none; stroke-width: 1; stroke-dasharray: none; stroke-linecap: butt; stroke-dashoffset: 0; stroke-linejoin: miter; stroke-miterlimit: 4; fill: rgb(76,63,58); fill-rule: nonzero; opacity: 1;"  paint-order="stroke"  transform=" translate(4.2215000000000025, 8.2485)" d="M 0 0 C 1.714 -1.802 1.644 -4.652 -0.158 -6.367 C -1.96 -8.082 -4.812 -8.01 -6.526 -6.209 C -8.24 -4.407 -8.17 -1.557 -6.368 0.159 C -4.565 1.873 -1.715 1.802 0 0 m -7.326 5.558 l -7.396 -7.039 l -1.143 -1.076 l 8.307 -8.819 l -8.801 -8.304 l 4.152 -4.402 l 12.976 12.241 l 1.967 -2.086 l -19.462 -18.362 l 4.153 -4.402 l 21.438 20.227 c -2.337 4.331 -2.797 9.593 -0.93 14.433 l -20.969 22.225 l -4.274 -4.056 z" stroke-linecap="round" />
</g>
		<g transform="matrix(2.967 0 0 -2.967 0.047074162871922454 -83.90619423665194)"  >
<path style="stroke: none; stroke-width: 1; stroke-dasharray: none; stroke-linecap: butt; stroke-dashoffset: 0; stroke-linejoin: miter; stroke-miterlimit: 4; fill: rgb(76,63,58); fill-rule: nonzero; opacity: 1;"  paint-order="stroke"  transform=" translate(2.0455000000000005, 2.5124999999999993)" d="M 0 0 C 1.801 1.715 4.651 1.645 6.365 -0.157 C 8.081 -1.959 8.011 -4.811 6.209 -6.525 C 4.407 -8.239 1.557 -8.169 -0.158 -6.366 C -1.873 -4.565 -1.803 -1.715 0 0 M 4.171 -14.67 L 26.397 6.299 L 22.339 10.574 L 11.951 0.772 L 3.688 9.455 L 3.041 8.839 L -5.299 0.924 L -6.342 2.024 L -6.323 2.042 L -13.478 9.625 L -17.88 5.471 L -5.64 -7.503 L -7.724 -9.47 L -26.085 9.992 L -30.488 5.838 L -10.263 -15.599 c 4.331 2.337 9.594 2.796 14.434 0.929" stroke-linecap="round" />
</g>
</g>
</g>
<g transform="matrix(1.9692780337941629 0 0 1.9692780337941629 641.7320928514165 776.9143977335294)" id="text-logo-path"  >
<path style="stroke: none; stroke-width: 1; stroke-dasharray: none; stroke-linecap: butt; stroke-dashoffset: 0; stroke-linejoin: miter; stroke-miterlimit: 4; fill: rgb(52,109,191); fill-rule: nonzero; opacity: 1;"  paint-order="stroke"  transform=" translate(-182.54500000000002, 23.405)" d="M 5.84 -6.51 L 5.84 -6.51 L 5.84 -39.01 Q 5.84 -40.34 6.35 -41.53 Q 6.86 -42.72 7.74 -43.59 Q 8.63 -44.47 9.82 -44.99 Q 11.01 -45.51 12.35 -45.51 L 12.35 -45.51 L 37.04 -45.51 Q 38.37 -45.51 39.56 -44.99 Q 40.75 -44.47 41.64 -43.59 Q 42.53 -42.72 43.04 -41.53 Q 43.54 -40.34 43.54 -39.01 L 43.54 -39.01 L 43.54 -33.13 L 37.04 -33.13 L 37.04 -39.01 L 12.35 -39.01 L 12.35 -6.51 L 37.04 -6.51 L 37.04 -12.35 L 43.54 -12.35 L 43.54 -6.51 Q 43.54 -5.17 43.04 -3.98 Q 42.53 -2.79 41.64 -1.9 Q 40.75 -1.02 39.56 -0.51 Q 38.37 0 37.04 0 L 37.04 0 L 12.35 0 Q 11.01 0 9.82 -0.51 Q 8.63 -1.02 7.74 -1.9 Q 6.86 -2.79 6.35 -3.98 Q 5.84 -5.17 5.84 -6.51 Z M 53.32 -6.25 L 53.32 -6.25 L 53.32 -27.55 Q 53.32 -28.85 53.81 -29.99 Q 54.3 -31.14 55.15 -31.98 Q 55.99 -32.82 57.13 -33.31 Q 58.27 -33.8 59.54 -33.8 L 59.54 -33.8 L 76.33 -33.8 Q 77.63 -33.8 78.76 -33.31 Q 79.89 -32.82 80.73 -31.98 Q 81.57 -31.14 82.06 -29.99 Q 82.55 -28.85 82.55 -27.55 L 82.55 -27.55 L 82.55 -6.25 Q 82.55 -4.95 82.06 -3.81 Q 81.57 -2.67 80.73 -1.82 Q 79.89 -0.98 78.76 -0.49 Q 77.63 0 76.33 0 L 76.33 0 L 59.54 0 Q 58.27 0 57.13 -0.49 Q 55.99 -0.98 55.15 -1.82 Q 54.3 -2.67 53.81 -3.81 Q 53.32 -4.95 53.32 -6.25 Z M 59.54 -27.55 L 59.54 -6.25 L 76.33 -6.25 L 76.33 -27.55 L 59.54 -27.55 Z M 92.96 -6.25 L 92.96 -6.25 L 92.96 -27.55 Q 92.96 -28.85 93.45 -29.99 Q 93.95 -31.14 94.79 -31.98 Q 95.63 -32.82 96.77 -33.31 Q 97.91 -33.8 99.18 -33.8 L 99.18 -33.8 L 116.61 -33.8 L 116.61 -46.81 L 122.86 -46.81 L 122.86 0 L 116.61 0 L 116.61 -5.71 Q 116.51 -4.54 115.97 -3.49 Q 115.43 -2.44 114.59 -1.67 Q 113.75 -0.89 112.67 -0.44 Q 111.59 0 110.39 0 L 110.39 0 L 99.18 0 Q 97.91 0 96.77 -0.49 Q 95.63 -0.98 94.79 -1.82 Q 93.95 -2.67 93.45 -3.81 Q 92.96 -4.95 92.96 -6.25 Z M 99.18 -27.55 L 99.18 -6.25 L 116.61 -6.25 L 116.61 -27.55 L 99.18 -27.55 Z M 133.27 -6.25 L 133.27 -6.25 L 133.27 -27.55 Q 133.27 -28.85 133.76 -29.99 Q 134.25 -31.14 135.09 -31.98 Q 135.94 -32.82 137.08 -33.31 Q 138.22 -33.8 139.49 -33.8 L 139.49 -33.8 L 155.61 -33.8 Q 156.91 -33.8 158.06 -33.31 Q 159.2 -32.82 160.04 -31.98 Q 160.88 -31.14 161.37 -29.99 Q 161.87 -28.85 161.87 -27.55 L 161.87 -27.55 L 161.87 -13.71 L 139.49 -13.71 L 139.49 -6.25 L 161.87 -6.25 L 161.87 0 L 139.49 0 Q 138.22 0 137.08 -0.49 Q 135.94 -0.98 135.09 -1.82 Q 134.25 -2.67 133.76 -3.81 Q 133.27 -4.95 133.27 -6.25 Z M 139.49 -27.55 L 139.49 -19.96 L 155.61 -19.96 L 155.61 -27.55 L 139.49 -27.55 Z M 179.42 0 L 172.91 0 L 172.91 -45.51 L 197.82 -45.51 Q 208.87 -45.51 208.87 -34.44 L 208.87 -34.44 L 208.87 -29.26 Q 208.87 -19.74 200.74 -18.41 L 200.74 -18.41 L 209.31 0 L 202.11 0 L 193.67 -18.19 L 179.42 -18.19 L 179.42 0 Z M 179.42 -39.01 L 179.42 -24.69 L 197.48 -24.69 Q 200.08 -24.69 201.22 -25.83 Q 202.36 -26.98 202.36 -29.58 L 202.36 -29.58 L 202.36 -34.12 Q 202.36 -36.72 201.22 -37.86 Q 200.08 -39.01 197.48 -39.01 L 197.48 -39.01 L 179.42 -39.01 Z M 219.09 -6.25 L 219.09 -6.25 L 219.09 -27.55 Q 219.09 -28.85 219.58 -29.99 Q 220.07 -31.14 220.91 -31.98 Q 221.76 -32.82 222.9 -33.31 Q 224.04 -33.8 225.31 -33.8 L 225.31 -33.8 L 242.1 -33.8 Q 243.4 -33.8 244.53 -33.31 Q 245.65 -32.82 246.5 -31.98 Q 247.34 -31.14 247.83 -29.99 Q 248.32 -28.85 248.32 -27.55 L 248.32 -27.55 L 248.32 -6.25 Q 248.32 -4.95 247.83 -3.81 Q 247.34 -2.67 246.5 -1.82 Q 245.65 -0.98 244.53 -0.49 Q 243.4 0 242.1 0 L 242.1 0 L 225.31 0 Q 224.04 0 222.9 -0.49 Q 221.76 -0.98 220.91 -1.82 Q 220.07 -2.67 219.58 -3.81 Q 219.09 -4.95 219.09 -6.25 Z M 225.31 -27.55 L 225.31 -6.25 L 242.1 -6.25 L 242.1 -27.55 L 225.31 -27.55 Z M 268.35 0 L 254.83 -33.8 L 261.33 -33.8 L 271.58 -7.49 L 281.87 -33.8 L 288.37 -33.8 L 274.85 0 L 268.35 0 Z M 294.88 -6.25 L 294.88 -6.25 L 294.88 -27.55 Q 294.88 -28.85 295.37 -29.99 Q 295.86 -31.14 296.71 -31.98 Q 297.55 -32.82 298.69 -33.31 Q 299.83 -33.8 301.1 -33.8 L 301.1 -33.8 L 317.22 -33.8 Q 318.53 -33.8 319.67 -33.31 Q 320.81 -32.82 321.65 -31.98 Q 322.49 -31.14 322.98 -29.99 Q 323.48 -28.85 323.48 -27.55 L 323.48 -27.55 L 323.48 -13.71 L 301.1 -13.71 L 301.1 -6.25 L 323.48 -6.25 L 323.48 0 L 301.1 0 Q 299.83 0 298.69 -0.49 Q 297.55 -0.98 296.71 -1.82 Q 295.86 -2.67 295.37 -3.81 Q 294.88 -4.95 294.88 -6.25 Z M 301.1 -27.55 L 301.1 -19.96 L 317.22 -19.96 L 317.22 -27.55 L 301.1 -27.55 Z M 340.11 0 L 333.89 0 L 333.89 -33.8 L 340.11 -33.8 L 340.11 -27.83 Q 340.17 -29.07 340.68 -30.17 Q 341.19 -31.26 342.03 -32.07 Q 342.87 -32.88 343.98 -33.34 Q 345.09 -33.8 346.36 -33.8 L 346.36 -33.8 L 352.99 -33.8 Q 354.29 -33.8 355.42 -33.31 Q 356.55 -32.82 357.4 -31.98 Q 358.26 -31.14 358.75 -29.99 Q 359.25 -28.85 359.25 -27.55 L 359.25 -27.55 L 359.25 -21.84 L 352.99 -21.84 L 352.99 -27.55 L 340.11 -27.55 L 340.11 0 Z" stroke-linecap="round" />
</g>
</svg>